# xmcd
#
# Track frame offsets: 
#        150
#        27057
#        45872
#        70287
#        88070
#        113812
#        133050
#        164367
#        190700
#        205827
#        225072
#        249032
#
# Disc length: 3554 seconds
#
# Revision: 5
# Processed by: cddbd v1.5.2PL0 Copyright (c) Steve Scherf et al.
# Submitted via: ExactAudioCopy v0.99pb4
#
DISCID=8a0de00c
DTITLE=Various Artist - Body And Soul - Love Under Cover Disc 2
DYEAR=1999
DGENRE=Soul
TTITLE0=Mtume - Juicy Fruit
TTITLE1=Regina Belle - Show Me The Way
TTITLE2=Luther Vandross - Since I Lost My Baby
TTITLE3=Surface - Happy
TTITLE4=Isley Brothers - Between The Sheets
TTITLE5=Friends Of Distinction - Going In Circles
TTITLE6=Barry White - It's Ecstasy When You Lay Down Next To Me
TTITLE7=Freddie Jackson - Hey Lover
TTITLE8=Delfonics - Hey Love
TTITLE9=Bill Withers - Lovely Day
TTITLE10=O'Jays - Lovin' You
TTITLE11=Lou Rawls - Wind Beneath My Wings
EXTD=
EXTT0=
EXTT1=
EXTT2=
EXTT3=
EXTT4=
EXTT5=
EXTT6=
EXTT7=
EXTT8=
EXTT9=
EXTT10=
EXTT11=
PLAYORDER=
